<?xml version="1.0" encoding="UTF-8"?>
<svg id="Layer_1" xmlns="http://www.w3.org/2000/svg" version="1.1" viewBox="0 0 53.9 53.9">
  <!-- Generator: Adobe Illustrator 29.8.2, SVG Export Plug-In . SVG Version: 2.1.1 Build 3)  -->
  <defs>
    <style>
      .st0 {
        fill: #015c51;
      }

      .st0, .st1 {
        stroke: #fff;
        stroke-miterlimit: 10;
        stroke-width: .5px;
      }

      .st1 {
        fill: none;
      }
    </style>
  </defs>
  <g>
    <g>
      <circle class="st1" cx="27" cy="27" r="18.9"/>
      <ellipse class="st1" cx="27" cy="27" rx="10.6" ry="18.9"/>
      <line class="st1" x1="27" y1="8.1" x2="27" y2="45.8"/>
    </g>
    <g>
      <path class="st1" d="M11.1,37.1c3.4-1.4,9.1-2.3,15.7-2.3s12.7,1,16,2.5"/>
      <path class="st1" d="M42.6,16.6c-3.4,1.5-9.2,2.4-15.9,2.4s-12.2-.9-15.6-2.3"/>
      <line class="st1" x1="45.9" y1="26.9" x2="8.2" y2="26.9"/>
    </g>
  </g>
  <path class="st0" d="M21.7,11c-2.4,0-4.3,1.9-4.3,4.3s.2,1.3.4,1.9c0,0,3.9,7.7,3.9,7.7l3.9-7.6c.3-.6.5-1.3.5-2,0-2.4-1.9-4.3-4.3-4.3ZM21.7,17.9c-1.4,0-2.6-1.2-2.6-2.6s1.2-2.6,2.6-2.6,2.6,1.2,2.6,2.6-1.2,2.6-2.6,2.6Z"/>
</svg>