<?xml version="1.0" encoding="UTF-8"?>
<svg id="Layer_1" xmlns="http://www.w3.org/2000/svg" version="1.1" viewBox="0 0 53.9 53.9">
  <!-- Generator: Adobe Illustrator 29.8.2, SVG Export Plug-In . SVG Version: 2.1.1 Build 3)  -->
  <defs>
    <style>
      .st0, .st1 {
        fill: #015c51;
      }

      .st2, .st3, .st4 {
        fill: none;
      }

      .st2, .st3, .st4, .st1 {
        stroke: #fff;
      }

      .st2, .st3, .st1 {
        stroke-linecap: round;
        stroke-linejoin: round;
      }

      .st2, .st4 {
        stroke-width: .5px;
      }

      .st3 {
        stroke-width: .5px;
      }

      .st4 {
        stroke-miterlimit: 10;
      }

      .st1 {
        stroke-width: .6px;
      }
    </style>
  </defs>
  <g>
    <polygon class="st2" points="19.1 44.1 11.2 40.1 11.2 20.4 19.1 24.4 19.1 44.1"/>
    <polygon class="st2" points="19.1 44.1 27 40.1 27 20.4 19.1 24.4 19.1 44.1"/>
    <polygon class="st2" points="34.9 44.1 27 40.1 27 20.4 34.9 24.4 34.9 44.1"/>
    <polygon class="st2" points="34.9 44.1 42.8 40.1 42.8 20.4 34.9 24.4 34.9 44.1"/>
  </g>
  <g>
    <polygon class="st1" points="29.1 33.8 27 31.8 24.6 33.8 24.6 23.1 29.1 23.1 29.1 33.8"/>
    <g>
      <g>
        <path class="st0" d="M34.9,17.2c0,.8-1.4,1.4-1.6,2.1s.5,2,0,2.7-1.9.3-2.6.7-.7,2-1.5,2.2-1.7-.9-2.5-.9-1.8,1.1-2.5.9-.9-1.7-1.5-2.2-2.1-.1-2.6-.7.3-1.9,0-2.7-1.6-1.3-1.6-2.1,1.4-1.4,1.6-2.1-.5-2,0-2.7,1.9-.3,2.6-.7.7-2,1.5-2.2,1.7.9,2.5.9,1.8-1.1,2.5-.9.9,1.7,1.5,2.2,2.1.1,2.6.7-.3,1.9,0,2.7,1.6,1.3,1.6,2.1Z"/>
        <path class="st4" d="M34.9,17.2c0,.8-1.4,1.4-1.6,2.1s.5,2,0,2.7-1.9.3-2.6.7-.7,2-1.5,2.2-1.7-.9-2.5-.9-1.8,1.1-2.5.9-.9-1.7-1.5-2.2-2.1-.1-2.6-.7.3-1.9,0-2.7-1.6-1.3-1.6-2.1,1.4-1.4,1.6-2.1-.5-2,0-2.7,1.9-.3,2.6-.7.7-2,1.5-2.2,1.7.9,2.5.9,1.8-1.1,2.5-.9.9,1.7,1.5,2.2,2.1.1,2.6.7-.3,1.9,0,2.7,1.6,1.3,1.6,2.1Z"/>
      </g>
      <polygon class="st3" points="26.8 13.2 27.8 16.3 31.1 16.3 28.4 18.2 29.4 21.3 26.8 19.4 24.2 21.3 25.2 18.2 22.6 16.3 25.8 16.3 26.8 13.2"/>
    </g>
  </g>
</svg>