<?xml version="1.0" encoding="UTF-8"?>
<svg id="Layer_1" xmlns="http://www.w3.org/2000/svg" version="1.1" viewBox="0 0 53.9 53.9">
  <!-- Generator: Adobe Illustrator 29.8.2, SVG Export Plug-In . SVG Version: 2.1.1 Build 3)  -->
  <defs>
    <style>
      .st0 {
        stroke-linecap: round;
        stroke-linejoin: round;
      }

      .st0, .st1 {
        fill: none;
        stroke: #fff;
        stroke-width: .5px;
      }

      .st1 {
        stroke-miterlimit: 10;
      }
    </style>
  </defs>
  <g>
    <circle class="st1" cx="26.5" cy="27.8" r="7.2"/>
    <path class="st1" d="M14.1,44.4h0c0-3.9,3.2-7.1,7.1-7.1h10.7c3.9,0,7.1,3.2,7.1,7.1h0"/>
  </g>
  <g>
    <polygon class="st0" points="11.3 18.3 12.4 21.8 16 21.8 13.1 23.9 14.2 27.3 11.3 25.2 8.4 27.3 9.5 23.9 6.6 21.8 10.2 21.8 11.3 18.3"/>
    <polygon class="st0" points="20.6 7.9 21.7 11.3 25.3 11.3 22.4 13.5 23.5 16.9 20.6 14.8 17.7 16.9 18.8 13.5 15.9 11.3 19.5 11.3 20.6 7.9"/>
    <polygon class="st0" points="33.8 7.9 34.9 11.3 38.5 11.3 35.6 13.5 36.7 16.9 33.8 14.8 30.9 16.9 32 13.5 29.1 11.3 32.7 11.3 33.8 7.9"/>
    <polygon class="st0" points="42.1 18.3 43.2 21.8 46.8 21.8 43.9 23.9 45 27.3 42.1 25.2 39.1 27.3 40.3 23.9 37.3 21.8 40.9 21.8 42.1 18.3"/>
  </g>
</svg>