<?xml version="1.0" encoding="UTF-8"?>
<svg id="Layer_1" xmlns="http://www.w3.org/2000/svg" version="1.1" viewBox="0 0 53.9 53.9">
  <!-- Generator: Adobe Illustrator 29.8.2, SVG Export Plug-In . SVG Version: 2.1.1 Build 3)  -->
  <defs>
    <style>
      .st0, .st1 {
        fill: none;
        stroke: #fff;
        stroke-linecap: round;
        stroke-linejoin: round;
        stroke-width: .5px;
      }

      .st1 {
        stroke-dasharray: 1.3 1.9;
      }

      .st2 {
        fill: #fff;
      }
    </style>
  </defs>
  <g>
    <path class="st0" d="M36.6,10.1c5.9,3.4,9.8,9.7,9.8,16.9,0,10.8-8.7,19.5-19.5,19.5S7.5,37.8,7.5,27,15.9,7.8,26.4,7.6"/>
    <polygon class="st2" points="24.9 9.7 24.5 9.4 26.2 7.6 24.4 6 24.7 5.6 27 7.5 24.9 9.7"/>
  </g>
  <g>
    <polyline class="st0" points="27 13.7 27 26.9 32.5 21.6"/>
    <g>
      <line class="st0" x1="27" y1="13.5" x2="27" y2="14.9"/>
      <line class="st0" x1="27" y1="39.1" x2="27" y2="40.6"/>
    </g>
    <g>
      <line class="st0" x1="40.5" y1="27" x2="39.1" y2="27"/>
      <line class="st0" x1="14.9" y1="27" x2="13.4" y2="27"/>
    </g>
    <g>
      <line class="st0" x1="40.5" y1="27" x2="39.1" y2="27"/>
      <line class="st0" x1="14.9" y1="27" x2="13.4" y2="27"/>
    </g>
    <g>
      <line class="st0" x1="36.6" y1="36.6" x2="35.5" y2="35.6"/>
      <line class="st0" x1="18.4" y1="18.5" x2="17.4" y2="17.4"/>
    </g>
    <g>
      <line class="st0" x1="17.4" y1="36.6" x2="18.4" y2="35.6"/>
      <line class="st0" x1="35.5" y1="18.5" x2="36.6" y2="17.4"/>
    </g>
  </g>
  <g>
    <path class="st0" d="M28,7.6c.3,0,.7,0,1,0"/>
    <path class="st1" d="M31,8c.7.2,1.5.4,2.2.6"/>
    <path class="st0" d="M34.1,8.9c.3.1.6.3.9.4"/>
  </g>
</svg>