<?xml version="1.0" encoding="UTF-8"?>
<svg id="Layer_1" xmlns="http://www.w3.org/2000/svg" version="1.1" viewBox="0 0 53.9 53.9">
  <!-- Generator: Adobe Illustrator 29.8.2, SVG Export Plug-In . SVG Version: 2.1.1 Build 3)  -->
  <defs>
    <style>
      .st0 {
        stroke-linecap: round;
        stroke-linejoin: round;
      }

      .st0, .st1 {
        fill: none;
        stroke: #fff;
        stroke-width: .5px;
      }

      .st1 {
        stroke-miterlimit: 10;
      }
    </style>
  </defs>
  <path class="st1" d="M46.4,29.8c0,.4-.3.9-.7.9l-4.8.7c-.2.8-.5,1.6-.9,2.3.9,1.2,1.8,2.3,2.7,3.5.2.2.2.4.2.6s0,.4-.2.5c-.6.9-4.1,4.5-4.9,4.5s-.5,0-.6-.2l-3.5-2.7c-.8.4-1.6.7-2.3.9-.2,1.6-.3,3.2-.7,4.8-.2.4-.5.7-.9.7h-5.7c-.4,0-.9-.3-.9-.8l-.7-4.7c-.8-.2-1.6-.5-2.3-.9l-3.6,2.7c-.2.2-.4.2-.6.2s-.5,0-.6-.2c-.8-.8-4.4-4.1-4.4-4.9s0-.4.2-.5c.9-1.2,1.8-2.3,2.6-3.5-.4-.9-.8-1.6-1.1-2.5l-4.6-.7c-.4,0-.7-.5-.7-.9"/>
  <g>
    <circle class="st1" cx="26.9" cy="23.2" r="4.7"/>
    <path class="st1" d="M18.8,33.9h0c0-2.5,2.1-4.6,4.6-4.6h7c2.5,0,4.6,2.1,4.6,4.6h0"/>
  </g>
  <g>
    <rect class="st0" x="7.6" y="17.3" width="6.5" height="6.5"/>
    <rect class="st0" x="39.7" y="17.3" width="6.5" height="6.5"/>
  </g>
  <g>
    <rect class="st0" x="17.6" y="7.5" width="6.5" height="6.5"/>
    <rect class="st0" x="29.7" y="7.5" width="6.5" height="6.5"/>
  </g>
  <polyline class="st1" points="9.1 20.5 10.3 21.7 12.8 19.1"/>
  <polyline class="st1" points="41.3 20.5 42.4 21.7 45 19.1"/>
  <polyline class="st1" points="31.3 10.9 32.4 12 35 9.5"/>
  <polyline class="st1" points="19 10.9 20.2 12 22.7 9.5"/>
</svg>