<?xml version="1.0" encoding="UTF-8"?>
<svg id="Layer_1" xmlns="http://www.w3.org/2000/svg" version="1.1" viewBox="0 0 53.9 53.9">
  <!-- Generator: Adobe Illustrator 29.8.2, SVG Export Plug-In . SVG Version: 2.1.1 Build 3)  -->
  <defs>
    <style>
      .st0 {
        stroke-linecap: round;
        stroke-linejoin: round;
      }

      .st0, .st1 {
        fill: none;
        stroke: #fff;
        stroke-width: .5px;
      }

      .st1 {
        stroke-miterlimit: 10;
      }
    </style>
  </defs>
  <g>
    <circle class="st1" cx="15.5" cy="19.9" r="2.4"/>
    <path class="st1" d="M22,20.8c0,.1-.1.3-.2.3l-1.6.2c0,.3-.2.5-.3.8.3.4.6.8.9,1.2,0,0,0,.1,0,.2s0,.1,0,.2c-.2.3-1.3,1.5-1.6,1.5s-.2,0-.2,0l-1.2-.9c-.3.1-.5.2-.8.3,0,.5-.1,1.1-.2,1.6,0,.1-.2.2-.3.2h-1.9c-.1,0-.3-.1-.3-.3l-.2-1.6c-.3,0-.5-.2-.8-.3l-1.2.9c0,0-.1,0-.2,0s-.2,0-.2,0c-.3-.3-1.5-1.3-1.5-1.6s0-.1,0-.2c.3-.4.6-.8.9-1.2-.1-.3-.3-.5-.4-.8l-1.5-.2c-.1,0-.2-.2-.2-.3v-1.9c0-.1.1-.3.2-.3l1.6-.2c0-.3.2-.5.3-.8-.3-.4-.6-.8-.9-1.2,0,0,0-.2,0-.2s0-.1,0-.2c.2-.3,1.3-1.5,1.6-1.5s.2,0,.2,0l1.2.9c.3-.1.5-.2.8-.3,0-.5.1-1.1.2-1.6,0-.1.2-.2.3-.2h1.9c.1,0,.3.1.3.3l.2,1.6c.3,0,.5.2.8.3l1.2-.9c0,0,.1,0,.2,0s.2,0,.2,0c.3.2,1.5,1.3,1.5,1.6s0,.1,0,.2c-.3.4-.6.8-.9,1.2.1.3.3.5.3.8l1.5.2c.1,0,.2.2.2.3v1.9h0Z"/>
  </g>
  <ellipse class="st1" cx="15.6" cy="33.9" rx="4.5" ry="1.5"/>
  <ellipse class="st1" cx="27.6" cy="28.4" rx="4.5" ry="1.5"/>
  <ellipse class="st1" cx="39.5" cy="23" rx="4.5" ry="1.5"/>
  <path class="st0" d="M20.1,39.1c0,.9-2,1.7-4.5,1.7s-4.5-.7-4.5-1.7M20.1,36.5c0,.9-2,1.7-4.5,1.7s-4.5-.7-4.5-1.7"/>
  <path class="st0" d="M32.1,33.5c0,.9-2,1.7-4.5,1.7s-4.5-.7-4.5-1.7M32.1,30.9c0,.9-2,1.7-4.5,1.7s-4.5-.7-4.5-1.7"/>
  <path class="st0" d="M44,28.2c0,.9-2,1.7-4.5,1.7s-4.5-.7-4.5-1.7M44,25.6c0,.9-2,1.7-4.5,1.7s-4.5-.7-4.5-1.7"/>
  <path class="st0" d="M32.1,38.9c0,.9-2,1.7-4.5,1.7s-4.5-.7-4.5-1.7M32.1,36.3c0,.9-2,1.7-4.5,1.7s-4.5-.7-4.5-1.7"/>
  <path class="st0" d="M44,33.5c0,.9-2,1.7-4.5,1.7s-4.5-.7-4.5-1.7M44,30.9c0,.9-2,1.7-4.5,1.7s-4.5-.7-4.5-1.7"/>
  <path class="st0" d="M44,38.9c0,.9-2,1.7-4.5,1.7s-4.5-.7-4.5-1.7M44,36.3c0,.9-2,1.7-4.5,1.7s-4.5-.7-4.5-1.7"/>
</svg>