<?xml version="1.0" encoding="UTF-8"?>
<svg id="Layer_1" xmlns="http://www.w3.org/2000/svg" version="1.1" viewBox="0 0 53.9 53.9">
  <!-- Generator: Adobe Illustrator 29.8.2, SVG Export Plug-In . SVG Version: 2.1.1 Build 3)  -->
  <defs>
    <style>
      .st0 {
        stroke-width: .5px;
      }

      .st0, .st1 {
        fill: none;
        stroke: #fff;
        stroke-linecap: round;
        stroke-linejoin: round;
      }

      .st1 {
        stroke-width: .5px;
      }
    </style>
  </defs>
  <g>
    <rect class="st0" x="24" y="9.8" width="5.8" height="34.2" transform="translate(-11.1 26.9) rotate(-45)"/>
    <g>
      <line class="st0" x1="16.2" y1="16.5" x2="14.4" y2="18.4"/>
      <line class="st0" x1="20.4" y1="20.7" x2="18.6" y2="22.6"/>
      <line class="st0" x1="16.9" y1="18.6" x2="15.8" y2="19.8"/>
      <line class="st0" x1="18.3" y1="20" x2="17.2" y2="21.2"/>
      <line class="st0" x1="24.6" y1="24.9" x2="22.8" y2="26.8"/>
      <line class="st0" x1="21.1" y1="22.8" x2="20" y2="24"/>
      <line class="st0" x1="22.5" y1="24.2" x2="21.4" y2="25.4"/>
      <line class="st0" x1="28.8" y1="29.1" x2="27" y2="31"/>
      <line class="st0" x1="25.3" y1="27" x2="24.2" y2="28.2"/>
      <line class="st0" x1="26.7" y1="28.4" x2="25.6" y2="29.6"/>
      <line class="st0" x1="33" y1="33.3" x2="31.2" y2="35.1"/>
      <line class="st0" x1="29.5" y1="31.2" x2="28.4" y2="32.4"/>
      <line class="st0" x1="30.9" y1="32.6" x2="29.8" y2="33.7"/>
      <line class="st0" x1="37.2" y1="37.5" x2="35.4" y2="39.3"/>
      <line class="st0" x1="33.7" y1="35.4" x2="32.6" y2="36.5"/>
      <line class="st0" x1="35.1" y1="36.8" x2="34" y2="37.9"/>
    </g>
  </g>
  <g>
    <polyline class="st1" points="26.9 30.9 18.8 39 14.7 34.9 22.7 27"/>
    <polyline class="st1" points="27 22.7 35.9 13.8 40 17.9 31 26.8"/>
    <polyline class="st1" points="14.7 34.9 13.8 40 18.8 39"/>
    <line class="st1" x1="33.3" y1="16.6" x2="37.2" y2="20.5"/>
    <line class="st1" x1="28.9" y1="24.8" x2="35.2" y2="18.6"/>
    <line class="st1" x1="16.8" y1="36.9" x2="24.8" y2="29"/>
  </g>
</svg>