<?xml version="1.0" encoding="UTF-8"?>
<svg id="Layer_2" data-name="Layer 2" xmlns="http://www.w3.org/2000/svg" viewBox="0 0 254.21 57.5">
  <defs>
    <style>
      .cls-1 {
        fill: #fff;
      }

      .cls-2 {
        fill: none;
      }
    </style>
  </defs>
  <g id="Layer_1-2" data-name="Layer 1">
    <g id="Group_27" data-name="Group 27">
      <g id="Group_1" data-name="Group 1">
        <path id="Path_1" data-name="Path 1" class="cls-1" d="M68.67,43.98c0-.97.54-1.45,1.61-1.45h8.45c.88,0,1.32.38,1.32,1.15,0,.25-.04.5-.13.74-.06.15-.12.3-.2.44h-8.39v3.68h7.09c.87,0,1.3.38,1.3,1.15,0,.25-.04.5-.12.74-.05.16-.12.3-.21.44h-8.06v4h8.58v2.33h-11.24v-13.21Z"/>
        <path id="Path_2" data-name="Path 2" class="cls-1" d="M88.24,57.19c.07-.1.25-.32.53-.65.28-.34.62-.74,1.02-1.22.4-.48.85-1,1.34-1.58s.99-1.16,1.51-1.74c-.69-.73-1.28-1.33-1.77-1.81-.49-.48-.89-.88-1.2-1.21-.26-.26-.48-.55-.68-.86-.14-.22-.22-.47-.22-.73,0-.25.11-.48.29-.65.27-.22.61-.32.95-.29.24,0,.47.03.7.1.14.04.27.08.4.14.06.07.19.22.41.46s.47.52.77.84c.3.33.62.68.96,1.07s.68.75,1.01,1.11c.28-.34.56-.68.85-1,.29-.32.55-.63.78-.91.23-.28.44-.51.61-.71.17-.19.27-.32.32-.37.2-.22.44-.4.7-.54.26-.13.55-.19.84-.18.37-.01.73.07,1.06.25.21.1.39.24.55.4-.12.13-.31.35-.58.65s-.59.67-.96,1.09-.77.89-1.22,1.4-.91,1.04-1.38,1.58c.53.6,1.05,1.18,1.56,1.75.51.57.99,1.1,1.42,1.58l1.12,1.26c.32.36.53.61.65.77h-3.1c-.34-.38-.77-.88-1.31-1.49-.54-.61-1.18-1.31-1.93-2.13-.66.77-1.27,1.48-1.82,2.13s-.96,1.14-1.22,1.49h-2.95Z"/>
        <path id="Path_3" data-name="Path 3" class="cls-1" d="M109.01,42.57c-.03-.32.1-.64.35-.86.29-.2.64-.3.99-.28.25,0,.49.03.73.1.22.06.37.11.44.14v5.88c.37-.4.82-.73,1.32-.96.72-.33,1.5-.48,2.29-.45.63,0,1.26.09,1.86.28.54.17,1.04.45,1.46.82.42.37.74.84.95,1.36.23.61.34,1.25.33,1.9v6.69h-2.51v-5.96c.05-.76-.16-1.52-.6-2.14-.55-.54-1.31-.81-2.08-.73-.84-.06-1.66.25-2.26.84-.53.62-.8,1.42-.76,2.23v5.75h-2.51v-14.62Z"/>
        <path id="Path_4" data-name="Path 4" class="cls-1" d="M130.67,41.65c.4,0,.79.14,1.08.43.58.56.59,1.49.03,2.07,0,0-.02.02-.03.03-.61.57-1.55.57-2.16,0-.58-.56-.59-1.49-.03-2.07,0,0,.02-.02.03-.03.29-.28.68-.44,1.08-.43M129.42,47.59c-.03-.33.1-.65.35-.87.29-.19.64-.29.99-.27.25,0,.49.03.73.1.22.06.37.11.44.14v10.49h-2.51v-9.6Z"/>
        <path id="Path_5" data-name="Path 5" class="cls-1" d="M141.37,42.57c-.03-.32.1-.64.35-.86.29-.2.64-.3.99-.28.25,0,.49.03.73.1.22.07.37.11.44.14v6.13c.42-.49.93-.89,1.52-1.16.69-.33,1.45-.5,2.22-.48.76,0,1.52.13,2.23.42.67.27,1.27.67,1.78,1.18.51.52.92,1.13,1.19,1.8.29.72.44,1.5.43,2.28,0,.78-.14,1.55-.44,2.26-.28.68-.7,1.29-1.23,1.8-.55.51-1.18.91-1.88,1.18-.76.29-1.57.44-2.39.43-.81,0-1.62-.12-2.39-.39-.7-.24-1.35-.64-1.88-1.15-.55-.54-.97-1.2-1.23-1.92-.31-.87-.46-1.79-.44-2.71v-8.75ZM147.27,55.28c.47,0,.94-.09,1.38-.27.4-.17.77-.42,1.08-.73.3-.31.54-.68.69-1.09.16-.44.25-.91.24-1.38,0-.47-.08-.94-.24-1.39-.15-.41-.39-.79-.69-1.1-.31-.31-.67-.56-1.08-.73-.44-.18-.9-.27-1.38-.27-.48,0-.96.08-1.4.27-.4.17-.77.42-1.07.74-.3.32-.54.7-.69,1.11-.17.44-.26.9-.25,1.37,0,.48.08.96.25,1.41.16.41.39.78.7,1.09.31.3.68.54,1.08.7.44.17.9.26,1.38.26"/>
        <path id="Path_6" data-name="Path 6" class="cls-1" d="M163.78,41.65c.4,0,.79.14,1.08.43.58.56.59,1.49.03,2.07,0,0-.02.02-.03.03-.61.57-1.55.57-2.16,0-.58-.56-.59-1.49-.03-2.07,0,0,.02-.02.03-.03.29-.28.68-.44,1.08-.43M162.52,47.59c-.03-.33.1-.65.35-.87.29-.19.64-.29.99-.27.25,0,.49.03.73.1.22.06.37.11.44.14v10.49h-2.51v-9.6Z"/>
        <path id="Path_7" data-name="Path 7" class="cls-1" d="M174.81,44.56c-.03-.33.1-.65.35-.86.28-.19.62-.29.97-.27.25,0,.5.03.74.1.23.06.38.11.45.14v2.8h3.19c.37-.04.73.07,1.02.29.21.23.32.53.3.85,0,.23-.03.46-.11.67-.05.15-.11.3-.18.44h-4.23v4.76c-.01.31.04.62.15.91.09.22.24.42.43.57.19.15.41.25.64.3.25.06.5.09.76.08.4,0,.81-.06,1.19-.19.28-.09.54-.21.79-.36l1.01,1.62c-.12.08-.28.19-.5.32-.25.14-.51.27-.78.36-.34.12-.68.22-1.04.29-.41.08-.83.12-1.26.12-1.07.08-2.12-.27-2.93-.97-.67-.68-1.03-1.6-.99-2.55v-9.41Z"/>
        <path id="Path_8" data-name="Path 8" class="cls-1" d="M191.97,41.65c.4,0,.79.14,1.08.43.58.56.59,1.49.03,2.07,0,0-.02.02-.03.03-.61.57-1.55.57-2.16,0-.58-.57-.59-1.49-.02-2.07,0,0,.01-.01.02-.02.29-.28.68-.44,1.08-.43M190.72,47.59c-.03-.33.1-.65.35-.87.29-.19.64-.29.99-.27.25,0,.49.03.73.1.22.06.37.11.44.14v10.49h-2.51v-9.6Z"/>
        <path id="Path_9" data-name="Path 9" class="cls-1" d="M208.55,46.16c.82,0,1.63.14,2.39.43.71.27,1.37.67,1.93,1.19,1.12,1.05,1.75,2.52,1.74,4.05,0,.77-.15,1.53-.46,2.23-.3.68-.73,1.29-1.28,1.8-.56.52-1.21.93-1.93,1.2-1.54.58-3.24.58-4.78,0-.71-.27-1.37-.68-1.92-1.2-2.23-2.09-2.35-5.59-.26-7.82.08-.09.17-.18.26-.26.56-.52,1.21-.92,1.92-1.19.76-.29,1.57-.43,2.39-.43M208.55,55.33c.48,0,.95-.09,1.39-.27.41-.17.78-.42,1.09-.75.3-.32.54-.7.7-1.11.17-.44.26-.91.25-1.38,0-.48-.08-.95-.25-1.4-.16-.42-.39-.8-.7-1.12-.31-.32-.68-.57-1.09-.74-.89-.36-1.89-.36-2.79,0-.41.17-.77.42-1.08.74-.31.32-.54.71-.7,1.12-.17.45-.26.92-.25,1.4,0,.47.08.94.25,1.38.16.41.4.79.7,1.11.3.32.67.58,1.08.75.44.18.92.27,1.4.27"/>
        <path id="Path_10" data-name="Path 10" class="cls-1" d="M223.74,50.71c-.01-.66.13-1.31.41-1.91.26-.55.65-1.04,1.12-1.43.5-.41,1.08-.71,1.7-.9.7-.21,1.42-.32,2.15-.31.73,0,1.46.1,2.16.31.62.19,1.2.49,1.71.9.47.39.85.88,1.11,1.43.27.6.41,1.25.4,1.91v6.47h-2.51v-5.85c.06-.8-.2-1.6-.73-2.21-1.25-1.01-3.03-1.01-4.28,0-.52.62-.77,1.41-.71,2.21v5.86h-2.51v-6.48Z"/>
        <path id="Path_11" data-name="Path 11" class="cls-1" d="M244.34,54.52c.17.11.36.2.55.28.32.13.65.25.98.35.44.13.88.24,1.33.31.54.09,1.08.13,1.63.13.64.02,1.27-.08,1.87-.29.44-.13.74-.54.73-.99.02-.36-.16-.71-.46-.91-.51-.27-1.08-.41-1.65-.44l-1.72-.19c-.55-.05-1.09-.15-1.62-.31-.45-.13-.88-.34-1.27-.61-.35-.25-.63-.57-.83-.95-.21-.42-.31-.89-.3-1.36,0-.45.09-.89.28-1.29.2-.42.5-.79.87-1.08.46-.35.99-.6,1.55-.74.76-.19,1.54-.28,2.32-.27,1.2-.05,2.41.12,3.55.49.84.33,1.26.76,1.27,1.28,0,.16-.03.31-.1.45-.06.12-.14.24-.22.34-.07.09-.16.18-.25.25-.06.05-.13.09-.2.12-.12-.1-.25-.19-.39-.27-.25-.15-.52-.27-.8-.36-.91-.32-1.87-.47-2.84-.46-1.7,0-2.55.43-2.55,1.3-.01.35.18.68.48.84.43.23.9.36,1.39.4l2.24.28c1.01.08,1.99.42,2.84.97.68.51,1.06,1.32,1.01,2.17.02,1.02-.47,1.99-1.31,2.56-1.12.71-2.45,1.05-3.77.96-.72,0-1.44-.05-2.16-.17-.57-.1-1.13-.23-1.68-.4-.4-.12-.78-.26-1.16-.44-.2-.09-.39-.2-.57-.32l.95-1.64Z"/>
        <path id="Path_12" data-name="Path 12" class="cls-1" d="M1.01,2.28C.36,3.12,0,4.16,0,5.22v22.66l24.06-.86L1.01,2.28Z"/>
        <path id="Path_13" data-name="Path 13" class="cls-1" d="M57.17,27.88V5.22c0-1.06-.36-2.1-1.01-2.94l-23.05,24.75,24.06.86Z"/>
        <path id="Path_14" data-name="Path 14" class="cls-1" d="M0,29.92v22.67c0,1.07.36,2.1,1.01,2.94l23.05-24.75L0,29.92Z"/>
        <path id="Path_15" data-name="Path 15" class="cls-1" d="M56.16,55.53c.65-.84,1-1.88,1.01-2.94v-22.67l-24.06.86,23.05,24.75Z"/>
        <path id="Path_16" data-name="Path 16" class="cls-1" d="M55.21,1.32c-.84-.65-1.88-1-2.94-1.01h-22.67l.86,24.06L55.21,1.32Z"/>
        <path id="Path_17" data-name="Path 17" class="cls-1" d="M27.57.32H4.9c-1.07,0-2.1.36-2.94,1.01l24.75,23.05L27.57.32Z"/>
        <path id="Path_18" data-name="Path 18" class="cls-1" d="M1.95,56.48c.85.65,1.88,1,2.95,1h22.67l-.86-24.06L1.95,56.48Z"/>
        <path id="Path_19" data-name="Path 19" class="cls-1" d="M29.6,57.49h22.67c1.07,0,2.1-.36,2.94-1l-24.76-23.05-.86,24.06Z"/>
        <path id="Path_20" data-name="Path 20" class="cls-2" d="M56.17,55.53l-23.06-24.75,24.06-.86v-2.04l-24.06-.86L56.16,2.27c-.27-.36-.59-.68-.95-.95l-24.75,23.05L29.6.32h-2.03l-.86,24.06L1.96,1.32c-.36.27-.68.59-.95.95l23.05,24.75-24.06.86v2.04l24.06.86L1.01,55.53c.27.36.59.68.95.95l24.75-23.05.86,24.06h2.04l.86-24.06,24.75,23.05c.36-.27.68-.59.95-.95"/>
        <path id="Path_21" data-name="Path 21" class="cls-1" d="M69.04,9.83c-.11-2.45,1.02-4.8,3.01-6.25,2.01-1.49,4.79-2.23,8.34-2.23,1.83,0,3.66.19,5.45.59,1.43.27,2.8.79,4.05,1.54.84.43,1.4,1.27,1.48,2.21-.02.56-.18,1.1-.47,1.58-.28.52-.68.96-1.17,1.29-.64-.66-1.42-1.18-2.27-1.53-1.06-.47-2.18-.83-3.32-1.07-1.21-.26-2.43-.39-3.67-.39-4.31,0-6.47,1.31-6.47,3.93-.02.96.44,1.87,1.23,2.42,1.22.75,2.59,1.24,4.02,1.43l4.51.82c3.17.57,5.47,1.5,6.9,2.78,1.47,1.37,2.26,3.32,2.15,5.33.09,2.51-1.09,4.91-3.15,6.35-2.1,1.53-5.02,2.29-8.76,2.29-1.51,0-3.02-.16-4.51-.45-1.51-.28-3-.69-4.44-1.21-1.21-.42-2.36-.99-3.42-1.7l2.13-3.81c.93.6,1.93,1.1,2.97,1.47,1.19.45,2.42.79,3.67,1.02,1.21.24,2.45.36,3.69.37,4.42,0,6.63-1.34,6.63-4.01.06-.99-.38-1.95-1.17-2.56-1.23-.75-2.6-1.24-4.03-1.41l-4.51-.82c-5.9-1.07-8.85-3.73-8.85-7.99"/>
        <path id="Path_22" data-name="Path 22" class="cls-1" d="M98.61,5.98c-.04-.62.22-1.22.7-1.62.52-.39,1.15-.58,1.8-.55.4,0,.8.04,1.19.12.34.06.67.17.98.33v5.37h5.94c1.64,0,2.46.72,2.46,2.17.01.74-.17,1.48-.53,2.13h-7.86v9.09c-.06.97.26,1.93.9,2.66.72.67,1.68,1.01,2.66.94.69,0,1.37-.1,2.03-.29.63-.16,1.23-.43,1.78-.78l1.88,3.11c-.86.68-1.84,1.19-2.88,1.5-1.21.39-2.47.6-3.75.59-1.94.1-3.84-.56-5.3-1.82-1.35-1.28-2.08-3.08-1.99-4.94V5.98Z"/>
        <path id="Path_23" data-name="Path 23" class="cls-1" d="M135.68,30.11c-1.42.19-2.96.35-4.61.47-1.65.12-3.15.19-4.49.19-3.39,0-5.97-.53-7.76-1.6-1.8-1.09-2.84-3.1-2.68-5.2-.1-1.92.77-3.77,2.32-4.91,1.54-1.15,4.05-1.72,7.52-1.72.79,0,1.68.03,2.66.08.98.05,1.78.12,2.38.2.12-1.39-.46-2.76-1.54-3.65-1.36-.86-2.96-1.26-4.57-1.15-1.18-.01-2.36.13-3.5.41-.82.17-1.6.52-2.27,1.02-.32-.25-.59-.56-.78-.92-.21-.38-.33-.81-.33-1.25.06-1.02.75-1.9,1.72-2.21,1.62-.63,3.35-.91,5.08-.82,3.58,0,6.28.73,8.11,2.19,1.83,1.46,2.74,3.64,2.74,6.53v12.33ZM122.2,26.61c1.38.59,2.88.85,4.38.76.82,0,1.65-.03,2.5-.1.66-.04,1.32-.13,1.97-.27v-5.98c-.78-.16-1.56-.26-2.35-.31-.97-.07-1.82-.1-2.56-.1-1.44-.13-2.89.18-4.16.88-.79.62-1.23,1.59-1.17,2.6-.07,1.04.47,2.03,1.39,2.52"/>
        <path id="Path_24" data-name="Path 24" class="cls-1" d="M142.68,16.96c-.12-2.18.72-4.31,2.31-5.82,3.12-2.23,7.16-2.71,10.71-1.27.87.34,1.46,1.16,1.52,2.09,0,.46-.13.91-.35,1.31-.15.34-.38.63-.68.86-1.26-.61-2.65-.92-4.05-.9-3.19,0-4.79,1.69-4.79,5.08v11.88h-4.67v-13.23Z"/>
        <path id="Path_25" data-name="Path 25" class="cls-1" d="M166.48,30.19h-4.67V2.17c-.04-.62.22-1.22.7-1.62.52-.39,1.15-.58,1.8-.55.4,0,.8.04,1.19.12.34.06.67.17.98.33v29.74Z"/>
        <path id="Path_26" data-name="Path 26" class="cls-1" d="M173.99,5.33c-1.07-1.16-1.07-2.94,0-4.1,1.13-1.09,2.92-1.09,4.05,0,1.07,1.16,1.07,2.94,0,4.1-1.13,1.09-2.92,1.09-4.05,0M178.35,30.19h-4.67V11.8c-.04-.62.22-1.22.7-1.62.52-.39,1.15-.58,1.8-.55.4,0,.8.04,1.19.12.34.06.67.17.98.33v20.11Z"/>
        <path id="Path_27" data-name="Path 27" class="cls-1" d="M195.15,38.79c-1.51,0-3.01-.16-4.48-.45-1.3-.23-2.58-.61-3.79-1.15l1.27-3.48c.97.42,1.99.73,3.03.92,1.18.25,2.39.38,3.6.39,2,.12,3.96-.55,5.47-1.86,1.38-1.47,2.09-3.45,1.95-5.47v-.49c-.79.95-1.77,1.71-2.89,2.23-1.28.58-2.67.87-4.08.84-1.84.02-3.66-.42-5.28-1.29-1.57-.84-2.88-2.1-3.79-3.62-.97-1.65-1.46-3.54-1.41-5.45-.03-1.94.45-3.86,1.41-5.55.94-1.62,2.3-2.96,3.93-3.87,1.8-.99,3.83-1.48,5.88-1.43,2.01-.05,4,.44,5.76,1.42,1.63.95,2.95,2.36,3.79,4.05.95,1.99,1.41,4.17,1.35,6.37v5.74c0,3.9-1.01,6.91-3.03,9.01-2.02,2.1-4.91,3.16-8.68,3.15M195.92,13.28c-1.72-.08-3.39.58-4.61,1.8-1.19,1.29-1.82,3-1.74,4.75-.08,1.75.55,3.46,1.74,4.75,2.6,2.4,6.61,2.4,9.22,0,1.19-1.29,1.82-3,1.74-4.75.08-1.75-.55-3.47-1.74-4.75-1.21-1.22-2.89-1.88-4.61-1.8"/>
        <path id="Path_28" data-name="Path 28" class="cls-1" d="M213.37,2.17c-.04-.62.22-1.22.7-1.62.52-.39,1.15-.58,1.8-.55.4,0,.8.04,1.19.12.34.06.67.17.98.33v11.3c.77-.9,1.76-1.59,2.87-2.01,1.25-.48,2.59-.72,3.93-.7,2.3-.14,4.56.67,6.25,2.23,1.55,1.65,2.36,3.87,2.23,6.13v12.78h-4.67v-11.38c.11-1.47-.29-2.94-1.15-4.14-.96-.98-2.32-1.48-3.69-1.35-1.56-.09-3.09.46-4.24,1.52-1.09,1.19-1.65,2.77-1.54,4.38v10.97h-4.67V2.17Z"/>
        <path id="Path_29" data-name="Path 29" class="cls-1" d="M240.28,5.98c-.04-.62.22-1.22.7-1.62.52-.39,1.15-.58,1.8-.55.4,0,.8.04,1.19.12.34.06.67.17.98.33v5.37h5.94c1.64,0,2.46.72,2.46,2.17.01.74-.17,1.48-.53,2.13h-7.86v9.09c-.06.97.26,1.93.9,2.66.72.67,1.68,1.01,2.66.94.69,0,1.37-.1,2.03-.29.63-.16,1.23-.42,1.78-.78l1.88,3.11c-.86.68-1.84,1.19-2.89,1.49-1.21.39-2.47.6-3.75.59-1.94.1-3.84-.56-5.3-1.82-1.35-1.28-2.08-3.08-1.99-4.94V5.98Z"/>
      </g>
    </g>
  </g>
</svg>