<svg xmlns="http://www.w3.org/2000/svg" width="254.21" height="57.484" viewBox="0 0 254.21 57.484">
  <g id="Group_2" data-name="Group 2" transform="translate(-53.432 -49.294)">
    <g id="Group_1" data-name="Group 1" transform="translate(53.432 49.294)">
      <path id="Path_1" data-name="Path 1" d="M123.383,85.645q0-1.452,1.607-1.453h8.452q1.321,0,1.32,1.154a1.964,1.964,0,0,1-.133.737,3.24,3.24,0,0,1-.2.438h-8.387V90.2h7.088q1.3,0,1.3,1.154a2.143,2.143,0,0,1-.122.737,1.664,1.664,0,0,1-.209.438h-8.057v4h8.584v2.33H123.383Z" transform="translate(-54.715 -41.667)" fill="#666"/>
      <path id="Path_2" data-name="Path 2" d="M151.866,100.644q.11-.149.528-.652t1.023-1.218q.606-.715,1.343-1.582t1.508-1.741q-1.035-1.09-1.772-1.806t-1.2-1.207a5.432,5.432,0,0,1-.682-.855,1.39,1.39,0,0,1-.22-.727.9.9,0,0,1,.286-.651,1.3,1.3,0,0,1,.947-.289,2.346,2.346,0,0,1,.7.1,3.617,3.617,0,0,1,.4.139q.088.107.407.46t.77.844q.451.493.958,1.069t1.013,1.111q.417-.513.847-1t.781-.908q.352-.417.606-.706c.168-.192.275-.316.319-.374a2.786,2.786,0,0,1,.7-.545,1.805,1.805,0,0,1,.837-.181,2.134,2.134,0,0,1,1.057.246,1.93,1.93,0,0,1,.55.4c-.118.128-.313.346-.583.651s-.591.671-.958,1.091-.774.886-1.221,1.4-.907,1.041-1.376,1.582q.792.9,1.563,1.752t1.42,1.581l1.123,1.261q.473.535.649.769h-3.1q-.507-.577-1.31-1.485t-1.926-2.126q-.991,1.154-1.816,2.126t-1.222,1.485Z" transform="translate(-63.63 -43.459)" fill="#666"/>
      <path id="Path_3" data-name="Path 3" d="M182.11,83.738a1.02,1.02,0,0,1,.352-.855,1.562,1.562,0,0,1,.991-.278,2.568,2.568,0,0,1,.726.1c.221.063.367.11.441.139v5.876a4.284,4.284,0,0,1,1.32-.961,5.04,5.04,0,0,1,2.289-.449,5.961,5.961,0,0,1,1.86.278,4.128,4.128,0,0,1,1.463.822,3.586,3.586,0,0,1,.946,1.358,5.033,5.033,0,0,1,.33,1.9v6.689h-2.509V92.393a3.269,3.269,0,0,0-.605-2.137,2.581,2.581,0,0,0-2.081-.726,2.878,2.878,0,0,0-2.255.844,3.214,3.214,0,0,0-.759,2.233v5.748h-2.51Z" transform="translate(-73.096 -41.171)" fill="#666"/>
      <path id="Path_4" data-name="Path 4" d="M212.944,82.917a1.49,1.49,0,0,1,1.078.427,1.463,1.463,0,0,1,0,2.094,1.571,1.571,0,0,1-2.156,0,1.463,1.463,0,0,1,0-2.094,1.489,1.489,0,0,1,1.078-.427m-1.255,5.941a1.017,1.017,0,0,1,.352-.866,1.61,1.61,0,0,1,.991-.267,2.568,2.568,0,0,1,.726.1c.221.063.367.11.44.139V98.453h-2.509Z" transform="translate(-82.271 -41.268)" fill="#666"/>
      <path id="Path_5" data-name="Path 5" d="M229.207,83.738a1.021,1.021,0,0,1,.352-.855,1.567,1.567,0,0,1,.99-.278,2.594,2.594,0,0,1,.726.1c.22.065.367.111.44.139v6.133a4.439,4.439,0,0,1,1.519-1.164,4.928,4.928,0,0,1,2.222-.481,5.871,5.871,0,0,1,2.234.416,5.352,5.352,0,0,1,1.783,1.175,5.468,5.468,0,0,1,1.189,1.8,5.886,5.886,0,0,1,.429,2.276,5.8,5.8,0,0,1-.44,2.265,5.224,5.224,0,0,1-1.233,1.8,5.78,5.78,0,0,1-1.882,1.175,6.494,6.494,0,0,1-2.388.427,7.112,7.112,0,0,1-2.388-.385,5.089,5.089,0,0,1-1.882-1.153,5.227,5.227,0,0,1-1.233-1.923,7.608,7.608,0,0,1-.44-2.714Zm5.9,12.715a3.466,3.466,0,0,0,1.375-.267,3.3,3.3,0,0,0,1.079-.727,3.146,3.146,0,0,0,.694-1.09,3.824,3.824,0,0,0,.242-1.378,3.915,3.915,0,0,0-.242-1.389,3.136,3.136,0,0,0-.694-1.1,3.3,3.3,0,0,0-1.079-.726,3.466,3.466,0,0,0-1.375-.267,3.525,3.525,0,0,0-1.4.267,3.113,3.113,0,0,0-1.067.737,3.465,3.465,0,0,0-.694,1.111,3.7,3.7,0,0,0-.253,1.368,3.815,3.815,0,0,0,.253,1.41,3.142,3.142,0,0,0,.7,1.09,3.232,3.232,0,0,0,1.078.7,3.6,3.6,0,0,0,1.376.257" transform="translate(-87.837 -41.171)" fill="#666"/>
      <path id="Path_6" data-name="Path 6" d="M261.13,82.917a1.491,1.491,0,0,1,1.079.427,1.463,1.463,0,0,1,0,2.094,1.572,1.572,0,0,1-2.157,0,1.463,1.463,0,0,1,0-2.094,1.49,1.49,0,0,1,1.078-.427m-1.254,5.941a1.017,1.017,0,0,1,.352-.866,1.613,1.613,0,0,1,.991-.267,2.572,2.572,0,0,1,.726.1c.22.063.366.11.44.139V98.453h-2.51Z" transform="translate(-97.353 -41.268)" fill="#666"/>
      <path id="Path_7" data-name="Path 7" d="M277.875,86.631a1.015,1.015,0,0,1,.352-.865,1.564,1.564,0,0,1,.968-.268,2.718,2.718,0,0,1,.738.1c.228.064.378.111.451.139v2.8h3.192a1.453,1.453,0,0,1,1.024.288,1.126,1.126,0,0,1,.3.845,2.008,2.008,0,0,1-.109.673,4.056,4.056,0,0,1-.176.438h-4.227v4.765a2.283,2.283,0,0,0,.155.909,1.413,1.413,0,0,0,.429.566,1.632,1.632,0,0,0,.639.3,3.291,3.291,0,0,0,.758.085,3.574,3.574,0,0,0,1.189-.192,3.366,3.366,0,0,0,.792-.363l1.013,1.625c-.118.085-.282.192-.5.32a4.7,4.7,0,0,1-.781.363,7.209,7.209,0,0,1-1.035.289,6.256,6.256,0,0,1-1.255.117,4.018,4.018,0,0,1-2.927-.972,3.419,3.419,0,0,1-.99-2.554Z" transform="translate(-103.069 -42.076)" fill="#666"/>
      <path id="Path_8" data-name="Path 8" d="M302.172,82.917a1.491,1.491,0,0,1,1.079.427,1.463,1.463,0,0,1,0,2.094,1.572,1.572,0,0,1-2.157,0,1.465,1.465,0,0,1,0-2.094,1.49,1.49,0,0,1,1.078-.427m-1.255,5.941a1.017,1.017,0,0,1,.352-.866,1.614,1.614,0,0,1,.991-.267,2.571,2.571,0,0,1,.726.1c.22.063.366.11.44.139V98.453h-2.51Z" transform="translate(-110.199 -41.268)" fill="#666"/>
      <path id="Path_9" data-name="Path 9" d="M324.232,89.48a6.6,6.6,0,0,1,2.388.427,5.9,5.9,0,0,1,1.926,1.186,5.458,5.458,0,0,1,1.739,4.05,5.41,5.41,0,0,1-.462,2.233,5.466,5.466,0,0,1-1.276,1.8,6.033,6.033,0,0,1-1.926,1.2,6.736,6.736,0,0,1-4.777,0,6.022,6.022,0,0,1-1.925-1.2,5.531,5.531,0,0,1,0-8.078,5.891,5.891,0,0,1,1.925-1.186,6.592,6.592,0,0,1,2.389-.427m0,9.168a3.547,3.547,0,0,0,1.386-.267,3.129,3.129,0,0,0,1.09-.748,3.512,3.512,0,0,0,.7-1.111,3.674,3.674,0,0,0,.253-1.378,3.845,3.845,0,0,0-.253-1.4,3.351,3.351,0,0,0-.7-1.122,3.207,3.207,0,0,0-1.09-.737,3.771,3.771,0,0,0-2.785,0,3.233,3.233,0,0,0-1.078.737,3.361,3.361,0,0,0-.7,1.122,3.831,3.831,0,0,0-.253,1.4,3.66,3.66,0,0,0,.253,1.378,3.523,3.523,0,0,0,.7,1.111,3.153,3.153,0,0,0,1.078.748,3.531,3.531,0,0,0,1.4.267" transform="translate(-115.684 -43.322)" fill="#666"/>
      <path id="Path_10" data-name="Path 10" d="M349.1,94.032a4.351,4.351,0,0,1,.407-1.913,4.18,4.18,0,0,1,1.123-1.432,5.008,5.008,0,0,1,1.695-.9,7.074,7.074,0,0,1,2.146-.311,7.182,7.182,0,0,1,2.157.311,5.005,5.005,0,0,1,1.706.9,4.069,4.069,0,0,1,1.112,1.432,4.446,4.446,0,0,1,.4,1.913v6.474h-2.509V94.652a3.075,3.075,0,0,0-.727-2.211,3.4,3.4,0,0,0-4.281,0,3.1,3.1,0,0,0-.715,2.211v5.855H349.1Z" transform="translate(-125.36 -43.322)" fill="#666"/>
      <path id="Path_11" data-name="Path 11" d="M378.653,97.835a3.5,3.5,0,0,0,.55.278,10.208,10.208,0,0,0,.98.352,10.461,10.461,0,0,0,1.331.31,9.7,9.7,0,0,0,1.629.128,5.135,5.135,0,0,0,1.871-.288,1.013,1.013,0,0,0,.726-.994,1.024,1.024,0,0,0-.462-.908,3.936,3.936,0,0,0-1.651-.438l-1.717-.192a8.3,8.3,0,0,1-1.618-.31,4.192,4.192,0,0,1-1.266-.609,2.728,2.728,0,0,1-.825-.952,2.877,2.877,0,0,1-.3-1.356,3.107,3.107,0,0,1,.276-1.294,2.906,2.906,0,0,1,.869-1.079,4.383,4.383,0,0,1,1.551-.737,8.789,8.789,0,0,1,2.323-.267,10.178,10.178,0,0,1,3.555.491q1.264.493,1.265,1.282a.964.964,0,0,1-.1.449,1.987,1.987,0,0,1-.22.341,1.327,1.327,0,0,1-.253.246.82.82,0,0,1-.2.117,2.679,2.679,0,0,0-.385-.267,4.451,4.451,0,0,0-.8-.363,8.328,8.328,0,0,0-2.839-.459q-2.553,0-2.552,1.3a.925.925,0,0,0,.484.844,3.566,3.566,0,0,0,1.387.4l2.245.278a6.117,6.117,0,0,1,2.839.973,2.512,2.512,0,0,1,1.013,2.168,3.023,3.023,0,0,1-1.311,2.564,6.3,6.3,0,0,1-3.774.962,12.448,12.448,0,0,1-2.157-.17,13.656,13.656,0,0,1-1.684-.4,8.622,8.622,0,0,1-1.156-.438,3.476,3.476,0,0,1-.572-.321Z" transform="translate(-134.315 -43.322)" fill="#666"/>
      <path id="Path_12" data-name="Path 12" d="M24.439,25.6a4.859,4.859,0,0,0-1.006,2.945V51.207L47.49,50.35Z" transform="translate(-23.432 -23.327)" fill="#fe110a"/>
      <path id="Path_13" data-name="Path 13" d="M95.686,51.208V28.542A4.855,4.855,0,0,0,94.68,25.6L71.629,50.351Z" transform="translate(-38.517 -23.328)" fill="#fe110a"/>
      <path id="Path_14" data-name="Path 14" d="M23.433,65.839V88.506a4.853,4.853,0,0,0,1.006,2.944L47.49,66.7Z" transform="translate(-23.432 -35.923)" fill="#fe110a"/>
      <path id="Path_15" data-name="Path 15" d="M94.68,91.45a4.863,4.863,0,0,0,1.006-2.945V65.839L71.628,66.7Z" transform="translate(-38.517 -35.923)" fill="#fe110a"/>
      <path id="Path_16" data-name="Path 16" d="M92.132,23.757a4.857,4.857,0,0,0-2.945-1.006H66.522l.857,24.056Z" transform="translate(-36.919 -22.437)" fill="#fe110a"/>
      <path id="Path_17" data-name="Path 17" d="M51.889,22.751H29.223a4.853,4.853,0,0,0-2.944,1.006L51.033,46.807Z" transform="translate(-24.323 -22.437)" fill="#fe110a"/>
      <path id="Path_18" data-name="Path 18" d="M26.277,94A4.855,4.855,0,0,0,29.223,95H51.889l-.857-24.059Z" transform="translate(-24.322 -37.521)" fill="#fe110a"/>
      <path id="Path_19" data-name="Path 19" d="M66.521,95.005H89.188A4.858,4.858,0,0,0,92.133,94L67.378,70.946Z" transform="translate(-36.918 -37.521)" fill="#fe110a"/>
      <path id="Path_20" data-name="Path 20" d="M79.6,77.964,56.543,53.209,80.6,52.353V50.316l-24.058-.857L79.595,24.705a4.909,4.909,0,0,0-.949-.949L53.892,46.806,53.035,22.75H51l-.857,24.056L25.388,23.756a4.89,4.89,0,0,0-.949.949L47.489,49.459l-24.057.857v2.037l24.057.857L24.438,77.964a4.909,4.909,0,0,0,.949.949L50.141,55.861,51,79.92h2.036l.857-24.059L78.647,78.913a4.929,4.929,0,0,0,.949-.949" transform="translate(-23.432 -22.437)" fill="#fff"/>
      <path id="Path_21" data-name="Path 21" d="M123.675,32.741a7.332,7.332,0,0,1,3.01-6.246q3.011-2.232,8.336-2.232a24.593,24.593,0,0,1,5.448.594,12.557,12.557,0,0,1,4.055,1.536A2.732,2.732,0,0,1,146,28.6a3.25,3.25,0,0,1-.471,1.577,3.6,3.6,0,0,1-1.168,1.291,6.784,6.784,0,0,0-2.272-1.535,16.257,16.257,0,0,0-3.318-1.066,17.546,17.546,0,0,0-3.667-.39q-6.472,0-6.471,3.932a2.847,2.847,0,0,0,1.228,2.416,10.285,10.285,0,0,0,4.016,1.434l4.505.819q4.751.86,6.9,2.785a6.779,6.779,0,0,1,2.151,5.325,7.413,7.413,0,0,1-3.155,6.349q-3.153,2.294-8.765,2.294a24.267,24.267,0,0,1-4.505-.45,28.16,28.16,0,0,1-4.445-1.209,15,15,0,0,1-3.419-1.7l2.13-3.809a14.563,14.563,0,0,0,2.969,1.474,22.2,22.2,0,0,0,3.666,1.024,19.6,19.6,0,0,0,3.687.369q6.634,0,6.634-4.014a3.01,3.01,0,0,0-1.167-2.56,10.07,10.07,0,0,0-4.034-1.413l-4.505-.82q-8.848-1.6-8.847-7.987" transform="translate(-54.64 -22.91)"/>
      <path id="Path_22" data-name="Path 22" d="M166.963,30.01a1.942,1.942,0,0,1,.7-1.617,2.809,2.809,0,0,1,1.8-.553,6.068,6.068,0,0,1,1.188.123,3.441,3.441,0,0,1,.983.327v5.366h5.939q2.458,0,2.457,2.171a4.251,4.251,0,0,1-.532,2.13h-7.864v9.092a3.694,3.694,0,0,0,.9,2.663,3.512,3.512,0,0,0,2.662.943,7.629,7.629,0,0,0,2.027-.287A6.083,6.083,0,0,0,179,49.589l1.884,3.113A8.5,8.5,0,0,1,178,54.2a12.028,12.028,0,0,1-3.747.594,7.541,7.541,0,0,1-5.305-1.823,6.37,6.37,0,0,1-1.986-4.936Z" transform="translate(-68.355 -24.03)"/>
      <path id="Path_23" data-name="Path 23" d="M212.016,56.524q-2.13.285-4.607.47t-4.486.185q-5.078,0-7.761-1.6a5.586,5.586,0,0,1-2.683-5.2,5.754,5.754,0,0,1,2.315-4.914q2.312-1.72,7.516-1.72,1.187,0,2.662.082t2.376.2a4.254,4.254,0,0,0-1.536-3.645,7.589,7.589,0,0,0-4.567-1.147,13.978,13.978,0,0,0-3.5.409,5.6,5.6,0,0,0-2.273,1.024,2.765,2.765,0,0,1-.779-.922,2.555,2.555,0,0,1-.328-1.249,2.49,2.49,0,0,1,1.72-2.212,12.267,12.267,0,0,1,5.08-.82q5.365,0,8.109,2.192t2.745,6.532Zm-13.475-3.5a9.576,9.576,0,0,0,4.382.758q1.23,0,2.5-.1a14.1,14.1,0,0,0,1.966-.266v-5.98a16.172,16.172,0,0,0-2.355-.307q-1.455-.1-2.561-.1a7.2,7.2,0,0,0-4.157.88,3.054,3.054,0,0,0-1.167,2.6,2.641,2.641,0,0,0,1.393,2.519" transform="translate(-76.341 -26.418)"/>
      <path id="Path_24" data-name="Path 24" d="M231.112,43.375a7.438,7.438,0,0,1,2.314-5.816,11.176,11.176,0,0,1,10.711-1.269,2.4,2.4,0,0,1,1.516,2.088,2.772,2.772,0,0,1-.348,1.312,2.259,2.259,0,0,1-.676.86,8.947,8.947,0,0,0-4.055-.9q-4.792,0-4.792,5.078V56.605h-4.67Z" transform="translate(-88.433 -26.418)"/>
      <path id="Path_25" data-name="Path 25" d="M263.623,52.481h-4.67V24.466a1.942,1.942,0,0,1,.7-1.618,2.808,2.808,0,0,1,1.8-.554,6.017,6.017,0,0,1,1.187.124,3.433,3.433,0,0,1,.983.328Z" transform="translate(-97.147 -22.294)"/>
      <path id="Path_26" data-name="Path 26" d="M276.326,27.807a3.026,3.026,0,0,1,0-4.1,2.919,2.919,0,0,1,4.055,0,3.024,3.024,0,0,1,0,4.1,2.919,2.919,0,0,1-4.055,0m4.363,24.862h-4.67V34.277a1.94,1.94,0,0,1,.7-1.617,2.806,2.806,0,0,1,1.8-.553,6.056,6.056,0,0,1,1.187.123,3.474,3.474,0,0,1,.984.328Z" transform="translate(-102.335 -22.481)"/>
      <path id="Path_27" data-name="Path 27" d="M302.743,65.207a23.513,23.513,0,0,1-4.485-.451,16.3,16.3,0,0,1-3.789-1.147l1.27-3.481a14.188,14.188,0,0,0,3.031.921,17.853,17.853,0,0,0,3.6.389,7.586,7.586,0,0,0,5.468-1.863,7.225,7.225,0,0,0,1.946-5.468v-.492a8.415,8.415,0,0,1-2.887,2.233,9.284,9.284,0,0,1-4.075.84,10.885,10.885,0,0,1-5.284-1.29,9.859,9.859,0,0,1-3.79-3.625,10.319,10.319,0,0,1-1.413-5.447,10.869,10.869,0,0,1,1.413-5.55,10.4,10.4,0,0,1,3.932-3.871,11.686,11.686,0,0,1,5.879-1.434,11.274,11.274,0,0,1,5.755,1.415,9.641,9.641,0,0,1,3.788,4.054,13.841,13.841,0,0,1,1.351,6.369v5.735q0,5.856-3.03,9.012t-8.684,3.153m.778-25.518a6.113,6.113,0,0,0-4.608,1.8,6.549,6.549,0,0,0-1.741,4.752,6.549,6.549,0,0,0,1.741,4.751,6.794,6.794,0,0,0,9.216,0,6.552,6.552,0,0,0,1.741-4.751,6.552,6.552,0,0,0-1.741-4.752,6.116,6.116,0,0,0-4.608-1.8" transform="translate(-107.596 -26.418)"/>
      <path id="Path_28" data-name="Path 28" d="M334.013,24.466a1.942,1.942,0,0,1,.7-1.618,2.814,2.814,0,0,1,1.8-.553,6.068,6.068,0,0,1,1.188.123,3.461,3.461,0,0,1,.983.328v11.3a7.081,7.081,0,0,1,2.866-2.007,10.626,10.626,0,0,1,3.932-.7,8.444,8.444,0,0,1,6.246,2.233A8.278,8.278,0,0,1,353.96,39.7V52.482h-4.67V41.1a6.294,6.294,0,0,0-1.147-4.137,4.581,4.581,0,0,0-3.686-1.352,5.776,5.776,0,0,0-4.239,1.516,5.883,5.883,0,0,0-1.536,4.382V52.482h-4.67Z" transform="translate(-120.64 -22.294)"/>
      <path id="Path_29" data-name="Path 29" d="M373.183,30.01a1.94,1.94,0,0,1,.7-1.617,2.809,2.809,0,0,1,1.8-.553,6.068,6.068,0,0,1,1.188.123,3.44,3.44,0,0,1,.983.327v5.366h5.939q2.458,0,2.457,2.171a4.251,4.251,0,0,1-.532,2.13h-7.864v9.092a3.694,3.694,0,0,0,.9,2.663,3.512,3.512,0,0,0,2.662.943,7.629,7.629,0,0,0,2.027-.287,6.084,6.084,0,0,0,1.781-.778l1.884,3.113a8.5,8.5,0,0,1-2.888,1.495,12.028,12.028,0,0,1-3.747.594,7.541,7.541,0,0,1-5.305-1.823,6.369,6.369,0,0,1-1.986-4.936Z" transform="translate(-132.899 -24.03)"/>
    </g>
  </g>
</svg>
